<?xml version="1.0" encoding="UTF-8" standalone="no"?>
<!-- Created with Inkscape (http://www.inkscape.org/) -->

<svg
   version="1.1"
   id="svg1"
   width="937.52405"
   height="787.22498"
   viewBox="0 0 937.52404 787.22497"
   sodipodi:docname="desplazamiento.svg"
   inkscape:version="1.4 (86a8ad7, 2024-10-11)"
   xmlns:inkscape="http://www.inkscape.org/namespaces/inkscape"
   xmlns:sodipodi="http://sodipodi.sourceforge.net/DTD/sodipodi-0.dtd"
   xmlns="http://www.w3.org/2000/svg"
   xmlns:svg="http://www.w3.org/2000/svg">
  <defs
     id="defs1" />
  <sodipodi:namedview
     id="namedview1"
     pagecolor="#ffffff"
     bordercolor="#000000"
     borderopacity="0.25"
     inkscape:showpageshadow="2"
     inkscape:pageopacity="0.0"
     inkscape:pagecheckerboard="0"
     inkscape:deskcolor="#d1d1d1"
     showgrid="false"
     inkscape:zoom="0.54003906"
     inkscape:cx="469.41049"
     inkscape:cy="393.49005"
     inkscape:window-width="1366"
     inkscape:window-height="697"
     inkscape:window-x="-8"
     inkscape:window-y="122"
     inkscape:window-maximized="1"
     inkscape:current-layer="g1" />
  <g
     inkscape:groupmode="layer"
     inkscape:label="Image"
     id="g1"
     transform="translate(337.06055,381.8656)">
    <path
       id="path2"
       style="fill:#ffffff; baseline-shift:baseline;display:inline;overflow:visible;vector-effect:none;enable-background:accumulate;stop-color:#ffffff;stop-opacity:1"
       d="m -295.33008,-381.85156 c -11.1189,-0.026 -21.95878,5.07507 -29.52904,13.12785 -4.0674,3.69994 -8.13271,7.40218 -12.20143,11.10066 0,245.43555 0,490.8711 0,736.30664 8.05702,8.89277 16.11497,17.78469 24.17383,26.67579 295.57422,-10e-6 591.14844,0 886.72266,0 6.99749,-6.33838 13.99426,-12.67754 20.99023,-19.01758 4.16462,-8.56224 6.46275,-18.23526 5.36385,-27.77013 -1.45329,-12.99022 -9.56438,-24.75677 -20.57231,-31.60414 -4.37721,-2.79612 -9.30946,-4.7222 -14.44815,-5.51562 -6.32644,-1.04142 -12.75272,-0.47833 -19.12854,-0.60037 -266.19336,-0.005 -532.386723,-0.009 -798.58008,-0.0136 0,-6.2526 0,-12.50521 0,-18.75781 59.40495,-57.47005 118.80989,-114.94011 178.214841,-172.41016 30.827079,33.54384 61.60406,67.13367 92.392578,100.71289 13.638196,-1.27807 27.27622,-2.55801 40.914063,-3.83984 C 101.63606,175.4631 144.29254,124.3856 186.94727,73.306641 c 38.63739,55.690739 77.2746,111.381609 115.91211,167.072269 8.81068,7.32246 20.28974,11.69141 31.81268,11.06579 8.2556,-0.3461 16.10616,-3.74666 22.79891,-8.44757 9.76423,-6.8231 17.83494,-15.6598 26.55789,-23.69423 21.17137,-20.1231 42.34274,-40.2462 63.51411,-60.36931 15.66821,22.80645 31.13943,45.78043 46.66015,68.70313 9.9983,6.38791 19.9936,12.78052 29.99219,19.16797 3.89486,-3.08682 7.91279,-6.12982 12.53807,-8.04416 4.98023,-2.11479 9.95358,-4.41727 14.22011,-7.79769 6.73218,-5.18427 11.58669,-12.64388 13.86814,-20.80774 1.85698,-6.65751 2.32875,-13.73937 1.15689,-20.56135 -0.96417,-5.62452 -3.28943,-10.94232 -6.40929,-15.69752 -2.32872,-3.57659 -4.84059,-7.03025 -7.18926,-10.59418 -24.35108,-35.90615 -48.70362,-71.811303 -73.0538,-107.718066 -3.12258,0.04834 -6.22452,-0.41065 -9.26562,-1.08789 -0.5855,-0.131158 -1.49504,-0.342046 -2.20483,-0.503785 -4.86732,-1.160903 -9.82731,-2.295609 -14.86707,-2.02009 -10.17695,0.398892 -19.90798,5.021082 -27.31883,11.892068 -6.81436,6.087117 -13.29019,12.537858 -19.99155,18.747236 C 383.62601,103.45781 361.57375,124.3041 339.52148,145.15039 307.32161,98.783203 275.12174,52.416016 242.92188,6.0488281 308.56315,-72.692708 374.20443,-151.43424 439.8457,-230.17578 c 9.20722,14.96473 18.41294,29.93038 27.6211,44.89453 5.8611,6.51778 11.72332,13.03456 17.58398,19.55273 16.96397,1.43211 33.97431,-0.009 50.93555,-0.71289 3.75574,-0.21902 6.91814,-2.77601 9.10661,-5.66563 2.37723,-3.19603 3.37148,-7.35691 2.70437,-11.28364 -0.73664,-8.5676 -1.59224,-17.13321 -1.80857,-25.73429 -0.2116,-5.22687 -0.96514,-10.5207 -3.15965,-15.31588 -2.62093,-6.0229 -6.59543,-11.30212 -9.89229,-16.95083 -21.11888,-34.29524 -42.24685,-68.58489 -63.38211,-102.87004 -1.89311,0.19443 -3.93815,0.43227 -5.73047,0.6543 -2.90751,0.33932 -5.89911,0.53004 -8.756,-0.2533 -8.50006,-2.03222 -17.73218,-1.70004 -25.77791,1.89144 -7.47172,3.31536 -14.3745,8.10491 -19.59626,14.44006 -3.58153,4.22759 -7.02594,8.56954 -10.6131,12.79267 -68.78154,82.85945 -137.56308,165.7189 -206.34462,248.578347 C 140.57488,-141.47396 88.413375,-216.78969 36.251953,-292.10547 c -8.008196,-8.94497 -16.013721,-17.89233 -24.023437,-26.83594 -5.2294255,1.01701 -10.1810935,3.04536 -15.310009,4.42571 -3.1715355,0.44266 -6.431653,0.3267 -9.523515,1.2685 -8.070197,1.9975 -15.338089,6.61173 -21.079082,12.56525 -72.88135,68.08069 -145.88371,136.03166 -218.85497,204.015934 0,-89.317054 0,-178.634114 0,-267.951174 -4.00817,-2.16607 -8.32637,-3.64634 -12.46457,-5.52784 -2.23008,-1.21239 -3.83697,-3.28031 -6.00748,-4.59008 -7.11347,-4.79888 -15.7368,-7.34399 -24.31897,-7.11645 z M 136.45117,0.73242188 C 102.65169,41.28125 68.852214,81.830078 35.052734,122.37891 9.5636322,94.718619 -15.808982,66.947843 -41.633068,39.599488 -51.211688,29.720553 -60.790896,19.842189 -70.369141,9.9628906 -100.27956,37.57657 -130.28907,65.086641 -159.40564,93.541539 c -31.0142,29.883141 -62.01969,59.775351 -93.05725,89.634241 0.0586,-55.22982 0.11719,-110.459634 0.17578,-165.689452 C -171.15726,-57.915592 -90.020655,-133.31025 -8.8769531,-208.69727 39.565755,-138.88737 88.008464,-69.077474 136.45117,0.73242188 Z" />
  </g>
</svg>
