<?xml version="1.0" encoding="UTF-8" standalone="no"?>
<!-- Created with Inkscape (http://www.inkscape.org/) -->

<svg
   version="1.1"
   id="svg1"
   width="850"
   height="849.27448"
   viewBox="0 0 850 849.27447"
   sodipodi:docname="inclinometros.svg"
   inkscape:version="1.4 (86a8ad7, 2024-10-11)"
   xmlns:inkscape="http://www.inkscape.org/namespaces/inkscape"
   xmlns:sodipodi="http://sodipodi.sourceforge.net/DTD/sodipodi-0.dtd"
   xmlns="http://www.w3.org/2000/svg"
   xmlns:svg="http://www.w3.org/2000/svg">
  <defs
     id="defs1" />
  <sodipodi:namedview
     id="namedview1"
     pagecolor="#ffffff"
     bordercolor="#000000"
     borderopacity="0.25"
     inkscape:showpageshadow="2"
     inkscape:pageopacity="0.0"
     inkscape:pagecheckerboard="0"
     inkscape:deskcolor="#d1d1d1"
     showgrid="false"
     inkscape:zoom="0.44493207"
     inkscape:cx="812.48357"
     inkscape:cy="315.77854"
     inkscape:window-width="1920"
     inkscape:window-height="1009"
     inkscape:window-x="1358"
     inkscape:window-y="-8"
     inkscape:window-maximized="1"
     inkscape:current-layer="g1" />
  <g
     inkscape:groupmode="layer"
     inkscape:label="Image"
     id="g1"
     transform="translate(-77.596307,-14.982168)">
    <path
       style="fill:#ffffff;stroke-width:1.93696"
       d="M 473.69448,863.19179 C 128.4367,839.16265 -45.376118,431.67071 176.65855,166.81191 376.15171,-71.157751 756.83631,-21.333765 887.63707,259.86475 1023.5427,552.03791 794.73035,885.53515 473.69448,863.19179 Z M 606.33737,835.7535 c 3.74933,-1.77551 6.62605,-4.69321 8.31899,-8.4375 1.97992,-4.37902 1.97992,-125.16472 0,-129.54376 -1.69294,-3.74429 -4.56966,-6.66199 -8.31899,-8.43751 -3.09913,-1.46761 -3.09913,-1.46761 -104.13086,-1.46761 -113.49473,0 -104.03856,-0.43514 -109.20936,5.02555 -4.82218,5.09254 -4.50066,0.12629 -4.50914,69.65145 -0.01,72.60418 -0.53765,68.68264 9.89754,73.40077 4.752,2.14856 203.39668,1.96573 207.95182,-0.19137 z M 449.52125,816.69835 c -15.10332,-9.33997 -15.22275,-8.38496 7.38409,-59.04267 12.24465,-27.43794 18.07195,-42.49839 18.84121,-48.69435 0.73957,-5.95686 8.92526,-4.78665 18.56931,2.6546 5.91218,4.56177 5.57561,3.73742 8.56723,20.98435 1.49664,8.62831 3.01537,17.08244 3.37497,18.78696 0.35958,1.70452 0.90867,7.28296 1.22019,12.39653 0.31154,5.11357 1.05056,12.36554 1.64231,16.11549 4.39542,27.85447 -0.78513,37.8846 -13.71175,26.54745 -3.41379,-2.99404 -3.41379,-2.99404 -3.42162,-13.08652 -0.0174,-22.46286 -22.20176,-4.55605 -28.20236,22.76445 -0.69878,3.18151 -9.47573,3.53454 -14.26358,0.57371 z m 41.13525,-44.33651 c 1.56448,-0.41877 1.80666,-17.46028 0.30077,-21.16549 -0.93473,-2.29988 -7.65547,13.15483 -7.65547,17.60416 0,3.05172 3.296,4.64773 7.3547,3.56133 z m 33.74942,-7.46062 c -1.24339,-0.24177 -7.01366,-8.39334 -7.01366,-9.90806 0,-4.00088 46.66682,-5.29512 50.36091,-1.3967 5.51642,5.82154 4.54199,8.63775 -2.98875,8.63775 -1.68686,0 -7.94534,0.69356 -13.90774,1.54125 -9.96131,1.41621 -22.26433,1.93985 -26.45076,1.12576 z m -8.56323,-90.07967 c 206.18824,-11.33128 300.19449,-261.3706 152.3976,-405.34948 -113.7045,-110.76719 -302.96839,-78.97143 -374.9542,62.99117 -76.67948,151.21892 28.38916,333.37983 197.45362,342.33174 13.10659,0.69399 12.96151,0.69384 25.10298,0.0265 z M 489.19015,568.83235 C 328.70914,544.89982 343.05631,309.46324 504.99573,309.46324 c 158.22718,0 177.46884,229.27769 21.69393,258.49814 -6.15757,1.15504 -31.62778,1.74663 -37.49951,0.87097 z m 31.92107,-48.03621 c 65.4791,-14.13339 89.3314,-93.52289 42.17523,-140.37511 -48.18389,-47.8733 -130.19888,-20.36474 -140.44589,47.10682 -8.45591,55.67801 43.58682,105.07157 98.27066,93.26829 z M 893.627,552.06432 c 3.74429,-1.69294 6.66199,-4.56966 8.4375,-8.31899 1.46762,-3.09913 1.46762,-3.09913 1.46762,-104.13087 0,-113.49474 0.43514,-104.03855 -5.02556,-109.20935 -5.09313,-4.82274 -0.12415,-4.50159 -69.65144,-4.50159 -69.52736,0 -64.55831,-0.32115 -69.65144,4.50159 -5.4607,5.1708 -5.02556,-4.28539 -5.02556,109.20935 0,101.03174 0,101.03174 1.46762,104.13087 1.77551,3.74933 4.69321,6.62605 8.4375,8.31899 4.37902,1.97992 125.16474,1.97992 129.54376,0 z M 778.08842,504.91478 c -3.27968,-1.72947 -11.50747,-10.37696 -11.51781,-12.10533 -0.032,-5.35059 1.88262,-13.6983 11.4897,-50.09585 1.88962,-7.159 3.67346,-15.3872 3.9641,-18.28489 1.30303,-12.99112 4.89448,-16.63922 12.74701,-12.9481 2.78246,1.30791 2.78246,1.30791 2.78246,8.04994 0,8.4346 7.18501,6.2398 19.1199,-5.84056 7.21085,-7.29875 -3.68868,-11.58501 -17.61297,-6.92633 -12.71994,4.25574 -17.0026,2.55271 -17.0026,-6.76119 0,-10.29906 21.33879,-13.16957 36.52627,-4.91354 11.105,6.03678 14.96896,10.43647 16.41988,18.69649 1.66199,9.46171 0.84684,11.85383 -7.44319,21.84218 -3.89313,4.6907 -3.89313,4.6907 0.13811,6.6786 19.62665,9.67834 18.13091,33.21437 -3.00967,47.35794 -21.58311,14.43968 -26.8977,16.66728 -33.64459,14.10213 -1.35742,-0.51609 -1.97169,-0.36018 -3.66285,0.92974 -2.52224,1.9238 -5.90923,2.00353 -9.29375,0.21877 z m 22.47454,-29.26106 c 10.30049,-4.19669 28.62898,-18.3027 27.06645,-20.83094 -2.57212,-4.16179 -28.2183,0.0655 -34.07217,5.61606 -0.4904,0.465 -2.01804,12.54473 -2.15991,17.07934 -0.0482,1.54292 1.6507,1.19733 9.16563,-1.86446 z m 52.97087,-27.48389 c -1.24338,-0.24177 -7.01365,-8.39334 -7.01365,-9.90806 0,-4.00088 46.66682,-5.29512 50.36091,-1.3967 5.51642,5.82155 4.54199,8.63775 -2.98877,8.63775 -1.68684,0 -7.94532,0.69356 -13.90772,1.54125 -9.96131,1.41621 -22.26433,1.93985 -26.45077,1.12576 z M 242.18927,548.96518 c 3.7443,-1.69294 6.66199,-4.56965 8.43751,-8.31898 1.54602,-3.26472 2.43466,-103.20113 0.91767,-103.20113 -0.30914,0 -2.47079,0.89579 -4.80366,1.99061 -4.05018,1.90078 -4.67268,2.00568 -13.79263,2.32435 -9.55102,0.33374 -9.55102,0.33374 -12.14184,11.80053 -3.77192,16.69432 -5.976,20.76412 -10.10451,18.65791 -5.54536,-2.82903 -7.28428,-13.70334 -3.86795,-24.18819 1.66553,-5.11164 1.80179,-4.90262 -4.33885,-6.65595 -12.76591,-3.64507 -19.421,-8.71074 -19.88006,-15.13214 -0.42846,-5.99332 -1.61492,-5.53244 14.24241,-5.53244 14.17145,0 14.17145,0 15.19918,-7.66915 1.90829,-14.24009 3.15174,-17.21853 8.03781,-19.25309 6.97065,-2.90261 9.8178,1.64016 8.13269,12.97615 -2.15284,14.48238 -2.84168,12.97789 6.2144,13.57292 8.36181,0.54942 13.74413,3.28216 16.41246,8.33301 2.10792,3.99003 1.88187,-91.83156 -0.22712,-96.28513 -1.77552,-3.74933 -4.69321,-6.62604 -8.43751,-8.31898 -4.37904,-1.97992 -125.16474,-1.97992 -129.54376,0 -3.74429,1.69294 -6.66199,4.56965 -8.4375,8.31898 -2.31821,4.89532 -2.31821,203.36643 0,208.26174 1.77551,3.74933 4.69321,6.62604 8.4375,8.31898 4.37902,1.97992 125.16472,1.97992 129.54376,0 z M 114.87398,495.61739 c -3.27969,-1.72948 -11.50748,-10.37697 -11.51781,-12.10533 -0.032,-5.3506 1.88263,-13.69831 11.48971,-50.09586 1.88962,-7.159 3.67346,-15.3872 3.9641,-18.28489 1.30303,-12.99112 4.89448,-16.63922 12.747,-12.9481 2.78246,1.30792 2.78246,1.30792 2.78246,8.04994 0,8.4346 7.18501,6.2398 19.11991,-5.84056 7.21085,-7.29875 -3.6887,-11.58501 -17.61297,-6.92633 -12.71995,4.25575 -17.0026,2.55271 -17.0026,-6.76119 0,-10.29906 21.33879,-13.16957 36.52626,-4.91354 11.10501,6.03678 14.96897,10.43647 16.41989,18.69649 1.66199,9.46171 0.84682,11.85384 -7.44319,21.84219 -3.89313,4.69069 -3.89313,4.69069 0.1381,6.67859 19.62668,9.67834 18.13094,33.21437 -3.00964,47.35795 -21.58312,14.43967 -26.89772,16.66727 -33.64459,14.10212 -1.35742,-0.51609 -1.97171,-0.36018 -3.66287,0.92974 -2.52223,1.9238 -5.90921,2.00353 -9.29374,0.21878 z m 22.47455,-29.26107 c 10.30047,-4.19669 28.62897,-18.3027 27.06645,-20.83094 -2.57215,-4.1618 -28.2183,0.0655 -34.07218,5.61606 -0.49042,0.465 -2.01804,12.54473 -2.1599,17.07934 -0.0482,1.54292 1.65069,1.19733 9.16563,-1.86446 z m 468.98884,-278.3216 c 3.74933,-1.77552 6.62605,-4.69322 8.31899,-8.43752 1.97992,-4.37902 1.97992,-125.164728 0,-129.543752 -1.69294,-3.744295 -4.56966,-6.661995 -8.31899,-8.437508 -4.89531,-2.318198 -203.3664,-2.318198 -208.26173,0 -3.74933,1.775513 -6.62604,4.693213 -8.31897,8.437508 -2.14024,4.733602 -1.96254,125.305272 0.19138,129.853672 1.77551,3.74933 4.69321,6.62605 8.4375,8.31899 4.752,2.14855 203.39668,1.96572 207.95182,-0.19138 z m -165.4937,-23.39395 c -15.10331,-9.33997 -15.22274,-8.38495 7.38409,-59.04266 12.24466,-27.437944 18.07196,-42.498403 18.84122,-48.694366 0.73957,-5.956851 8.92525,-4.78665 18.56931,2.654613 5.91218,4.561769 5.57561,3.73742 8.56722,20.984347 1.49665,8.628304 3.01538,17.082435 3.37498,18.786958 0.35958,1.704518 0.90866,7.282958 1.22019,12.396528 0.31154,5.11357 1.05056,12.36554 1.6423,16.1155 4.39543,27.85446 -0.78512,37.88458 -13.71174,26.54744 -3.41379,-2.99403 -3.41379,-2.99403 -3.42162,-13.08652 -0.0174,-22.46287 -22.20176,-4.55605 -28.20234,22.76444 -0.6988,3.18152 -9.47576,3.53455 -14.26361,0.57372 z m 41.13526,-44.33652 c 1.56448,-0.41877 1.80666,-17.46028 0.30077,-21.165479 -0.93474,-2.299884 -7.65548,13.154829 -7.65548,17.604169 0,3.05172 3.29601,4.64771 7.35471,3.56131 z m 54.57434,25.83049 c -5.36838,-2.8338 -7.04929,-13.82539 -3.69064,-24.13325 1.66555,-5.11163 1.80179,-4.90261 -4.33883,-6.65596 -12.76593,-3.64507 -19.42101,-8.71073 -19.88007,-15.13214 -0.42845,-5.993309 -1.61493,-5.532428 14.24242,-5.532428 14.17144,0 14.17144,0 15.19917,-7.669159 1.90829,-14.240086 3.15172,-17.218517 8.0378,-19.253092 6.97067,-2.902603 9.8178,1.640164 8.1327,12.976153 -2.15283,14.482392 -2.84167,12.977889 6.21439,13.572922 10.11927,0.664894 23.52327,11.795574 19.11169,15.870334 -3.32781,3.07374 -11.24749,5.20378 -20.60495,5.54182 -9.55103,0.34504 -9.55103,0.34504 -12.1353,11.82957 -3.73786,16.61121 -6.06485,20.8147 -10.28838,18.58523 z"
       id="path1" />
  </g>
</svg>
